<svg width="340" height="236" viewBox="0 0 340 236" fill="none" xmlns="http://www.w3.org/2000/svg">
<g filter="url(#filter0_f)">
<path d="M52.7194 41.149C53.9556 39.9099 56.0746 40.7469 56.1331 42.4973L56.3811 49.9249C56.4054 50.6533 56.8237 51.3111 57.473 51.642L64.0908 55.0141C65.6499 55.8085 65.511 58.0812 63.8669 58.6776L56.8821 61.2113C56.1981 61.4594 55.703 62.0599 55.5896 62.7791L54.4314 70.1246C54.1588 71.854 51.9541 72.422 50.879 71.0398L46.3186 65.1775C45.8708 64.6019 45.1456 64.3155 44.426 64.43L37.0966 65.596C35.3685 65.871 34.1449 63.9489 35.1249 62.4989L39.2872 56.3399C39.6947 55.7369 39.7425 54.9597 39.4118 54.3108L36.0358 47.6847C35.2412 46.1251 36.6893 44.3695 38.3702 44.8549L45.505 46.9148C46.205 47.1169 46.9592 46.9222 47.4736 46.4066L52.7194 41.149Z" fill="#4B7DFD"/>
</g>
<g filter="url(#filter1_f)">
<path d="M277.999 119.727C277.869 117.981 279.885 116.92 281.247 118.019L291.041 125.917C291.608 126.374 292.379 126.486 293.053 126.21L304.693 121.438C306.311 120.774 307.94 122.364 307.318 124L302.84 135.772C302.581 136.453 302.713 137.221 303.183 137.776L311.313 147.387C312.443 148.723 311.434 150.766 309.686 150.679L297.127 150.053C296.4 150.017 295.71 150.38 295.327 151L288.713 161.708C287.792 163.198 285.54 162.871 285.083 161.181L281.795 149.024C281.605 148.321 281.048 147.777 280.341 147.604L268.12 144.614C266.421 144.198 266.039 141.953 267.503 140.995L278.034 134.108C278.643 133.709 278.988 133.01 278.934 132.283L277.999 119.727Z" fill="#4B7DFD"/>
</g>
<path d="M64.112 182.766C63.9819 181.019 65.9982 179.959 67.3605 181.057L74.7001 186.976C75.267 187.433 76.0377 187.546 76.7117 187.269L85.4355 183.693C87.0544 183.029 88.6829 184.619 88.0606 186.255L84.7048 195.079C84.4458 195.759 84.5769 196.527 85.047 197.083L91.1405 204.286C92.2708 205.622 91.2614 207.665 89.514 207.578L80.1022 207.109C79.3746 207.073 78.6846 207.436 78.3014 208.056L73.3449 216.081C72.4247 217.571 70.172 217.243 69.7149 215.553L67.2506 206.442C67.0605 205.739 66.5037 205.195 65.7968 205.022L56.6371 202.78C54.9383 202.365 54.5555 200.12 56.0201 199.162L63.9123 194C64.5221 193.601 64.8671 192.902 64.813 192.176L64.112 182.766Z" fill="#4B7DFD"/>
<path d="M234.493 11.8126C234.428 10.9393 235.436 10.4092 236.117 10.9585L240.379 14.395C240.662 14.6235 241.047 14.6797 241.384 14.5415L246.449 12.4652C247.259 12.1334 248.073 12.9282 247.762 13.7464L245.814 18.8688C245.684 19.2092 245.75 19.593 245.985 19.8709L249.522 24.0528C250.088 24.7208 249.583 25.7422 248.709 25.6987L243.245 25.4265C242.881 25.4084 242.536 25.5898 242.344 25.9L239.466 30.5593C239.006 31.3042 237.88 31.1405 237.651 30.2955L236.221 25.0056C236.126 24.6541 235.847 24.3822 235.494 24.2957L230.176 22.9943C229.327 22.7865 229.135 21.6641 229.868 21.1852L234.45 18.1884C234.755 17.989 234.927 17.6395 234.9 17.2761L234.493 11.8126Z" fill="#4B7DFD"/>
<ellipse cx="16.5" cy="143.76" rx="1.5" ry="1.50191" fill="white"/>
<ellipse cx="1.5" cy="2.58064" rx="1.5" ry="1.50191" fill="white"/>
<ellipse cx="117.5" cy="52.6442" rx="1.5" ry="1.50191" fill="white"/>
<ellipse cx="338.5" cy="1.57942" rx="1.5" ry="1.50191" fill="white"/>
<ellipse cx="262.5" cy="84.6849" rx="1.5" ry="1.50191" fill="white"/>
<ellipse cx="173.5" cy="1.57942" rx="1.5" ry="1.50191" fill="white"/>
<ellipse cx="252.5" cy="193.823" rx="1.5" ry="1.50191" fill="white"/>
<ellipse cx="137.5" cy="233.874" rx="1.5" ry="1.50191" fill="white"/>
<ellipse cx="335.5" cy="224.863" rx="1.5" ry="1.50191" fill="white"/>
<path d="M170.951 172.828L173.909 160.21H181.467L185.215 173.306C185.456 174.149 184.486 174.813 183.787 174.284C183.232 173.863 182.429 174.195 182.333 174.885L181.631 179.936C181.445 181.275 179.597 181.482 179.119 180.218L178.12 177.579C177.778 176.676 176.502 176.67 176.152 177.57C175.722 178.675 174.076 178.338 174.116 177.152L174.197 174.736C174.226 173.878 173.249 173.367 172.561 173.882C171.796 174.454 170.733 173.758 170.951 172.828Z" fill="#EF1414"/>
<path d="M157.421 180.764C150.603 147.652 154.591 128.172 163.955 126.612L166.89 151.402C161.925 152.305 159.611 169.621 158.725 180.685C158.664 181.44 157.573 181.504 157.421 180.764Z" fill="#4B7DFD"/>
<mask id="mask0" style="mask-type:alpha" maskUnits="userSpaceOnUse" x="161" y="121" width="18" height="36">
<path d="M161.176 122.626L175.134 121.067L178.933 155.079L164.975 156.638L161.176 122.626Z" fill="#C4C4C4"/>
</mask>
<g mask="url(#mask0)">
<path d="M157.421 180.764C150.603 147.652 154.591 128.172 163.955 126.612L166.89 151.402C161.925 152.305 159.611 169.621 158.725 180.685C158.664 181.44 157.573 181.504 157.421 180.764Z" fill="#3857A8"/>
</g>
<path d="M175.671 50.8527C176.972 49.3485 179.304 49.3485 180.605 50.8527L189.611 61.2655C195.602 68.1925 198.405 77.3189 197.335 86.4145L188.915 157.981C188.722 159.624 187.33 160.862 185.676 160.862H177.975H170.285C168.626 160.862 167.232 159.617 167.044 157.969L158.882 86.3504C157.849 77.2919 160.655 68.2147 166.619 61.3189L175.671 50.8527Z" fill="#4B7DFD" fill-opacity="0.62"/>
<mask id="mask1" style="mask-type:alpha" maskUnits="userSpaceOnUse" x="155" y="48" width="24" height="113">
<path d="M155.957 48H178.138V160.862H155.957V48Z" fill="#C4C4C4"/>
</mask>
<g mask="url(#mask1)">
<path d="M175.671 50.8527C176.972 49.3485 179.304 49.3485 180.605 50.8527L189.611 61.2655C195.602 68.1925 198.405 77.3189 197.335 86.4145L188.915 157.981C188.722 159.624 187.33 160.862 185.676 160.862H177.975H170.285C168.626 160.862 167.232 159.617 167.044 157.969L158.882 86.3504C157.849 77.2919 160.655 68.2147 166.619 61.3189L175.671 50.8527Z" fill="#4B7DFD"/>
</g>
<path d="M199.024 180.764C205.842 147.652 201.854 128.172 192.49 126.612L189.555 151.402C194.52 152.305 196.834 169.621 197.72 180.685C197.781 181.44 198.872 181.504 199.024 180.764Z" fill="#3857A8"/>
<g filter="url(#filter2_d)">
<path d="M176.181 131.505H180.095V183.043C180.095 184.124 179.219 185 178.138 185C177.057 185 176.181 184.124 176.181 183.043V131.505Z" fill="#4B7DFD"/>
</g>
<path d="M178.138 131.505H180.095V183.043C180.095 184.124 179.219 185 178.138 185V131.505Z" fill="#3857A8"/>
<path d="M185.314 78.9881C185.314 82.7712 182.247 85.8381 178.464 85.8381C174.681 85.8381 171.614 82.7712 171.614 78.9881C171.614 75.2049 174.681 72.1381 178.464 72.1381C182.247 72.1381 185.314 75.2049 185.314 78.9881Z" fill="black"/>
<path fill-rule="evenodd" clip-rule="evenodd" d="M178.464 84.5333C181.527 84.5333 184.009 82.0506 184.009 78.9881C184.009 75.9255 181.527 73.4429 178.464 73.4429C175.402 73.4429 172.919 75.9255 172.919 78.9881C172.919 82.0506 175.402 84.5333 178.464 84.5333ZM178.464 85.8381C182.247 85.8381 185.314 82.7712 185.314 78.9881C185.314 75.2049 182.247 72.1381 178.464 72.1381C174.681 72.1381 171.614 75.2049 171.614 78.9881C171.614 82.7712 174.681 85.8381 178.464 85.8381Z" fill="white"/>
<path d="M182.052 120.407V118.802H178.916V115.544H182.052V113.942H174.461V115.544H177.593V118.802H174.461V120.407H182.052Z" fill="white"/>
<path d="M178.257 105.643C175.773 105.643 174.357 107.185 174.357 109.198C174.357 111.222 175.773 112.753 178.257 112.753C180.729 112.753 182.156 111.222 182.156 109.198C182.156 107.185 180.74 105.643 178.257 105.643ZM178.257 107.27C179.865 107.27 180.736 108.034 180.736 109.198C180.736 110.365 179.865 111.125 178.257 111.125C176.648 111.125 175.777 110.365 175.777 109.198C175.777 108.034 176.648 107.27 178.257 107.27Z" fill="white"/>
<path d="M182.052 101.763C182.052 99.4501 180.622 98.0489 178.249 98.0489C175.884 98.0489 174.461 99.4501 174.461 101.741V104.454H182.052V101.763ZM180.677 102.849H175.836V101.826C175.836 100.403 176.563 99.6502 178.249 99.6502C179.943 99.6502 180.677 100.403 180.677 101.83V102.849Z" fill="white"/>
<path d="M182.052 96.86V92.0005H180.729V95.255H174.461V96.86H182.052Z" fill="white"/>
<path d="M178.138 91.7095H182.705V122.371H178.138V91.7095Z" fill="#3857A8" fill-opacity="0.35"/>
<defs>
<filter id="filter0_f" x="30.7764" y="36.5588" width="38.4075" height="39.2553" filterUnits="userSpaceOnUse" color-interpolation-filters="sRGB">
<feFlood flood-opacity="0" result="BackgroundImageFix"/>
<feBlend mode="normal" in="SourceGraphic" in2="BackgroundImageFix" result="shape"/>
<feGaussianBlur stdDeviation="2" result="effect1_foregroundBlur"/>
</filter>
<filter id="filter1_f" x="262.596" y="113.572" width="53.1943" height="53.087" filterUnits="userSpaceOnUse" color-interpolation-filters="sRGB">
<feFlood flood-opacity="0" result="BackgroundImageFix"/>
<feBlend mode="normal" in="SourceGraphic" in2="BackgroundImageFix" result="shape"/>
<feGaussianBlur stdDeviation="2" result="effect1_foregroundBlur"/>
</filter>
<filter id="filter2_d" x="168.181" y="123.505" width="19.9143" height="69.4952" filterUnits="userSpaceOnUse" color-interpolation-filters="sRGB">
<feFlood flood-opacity="0" result="BackgroundImageFix"/>
<feColorMatrix in="SourceAlpha" type="matrix" values="0 0 0 0 0 0 0 0 0 0 0 0 0 0 0 0 0 0 127 0" result="hardAlpha"/>
<feOffset/>
<feGaussianBlur stdDeviation="4"/>
<feComposite in2="hardAlpha" operator="out"/>
<feColorMatrix type="matrix" values="0 0 0 0 0 0 0 0 0 0 0 0 0 0 0 0 0 0 0.15 0"/>
<feBlend mode="normal" in2="BackgroundImageFix" result="effect1_dropShadow"/>
<feBlend mode="normal" in="SourceGraphic" in2="effect1_dropShadow" result="shape"/>
</filter>
</defs>
</svg>
