<svg width="75" height="61" viewBox="0 0 75 61" fill="none" xmlns="http://www.w3.org/2000/svg">
<path d="M74.2434 22.4226L46.7656 12.9126C46.0064 12.6499 45.1857 13.0736 44.9316 13.86C44.6779 14.645 45.0873 15.4945 45.8465 15.7572L73.3237 25.267C74.0829 25.5297 74.9036 25.106 75.1573 24.3209C75.4107 23.5343 75.0013 22.6849 74.2434 22.4226Z" fill="#292A32"/>
<path d="M49.6775 9.8092C48.9183 9.54645 48.0976 9.97015 47.8437 10.7559C47.5898 11.5416 47.999 12.3917 48.7582 12.6545L72.801 20.9756C73.5602 21.2383 74.3811 20.814 74.635 20.0282C74.8889 19.2425 74.4795 18.3931 73.7203 18.1303L73.3774 18.0116L77.5125 5.21365L77.8554 5.33234C78.2357 5.46393 78.6448 5.25164 78.7715 4.85944C78.8982 4.46725 78.6935 4.04253 78.3146 3.91137L54.2717 -4.40976C53.8921 -4.54113 53.4824 -4.32906 53.3557 -3.93686C53.2289 -3.54466 53.4336 -3.11994 53.8126 -2.98879L54.1561 -2.86989L50.0213 9.92744L49.6777 9.80853L49.6775 9.8092ZM74.764 4.26241L70.6291 17.0597L66.5077 15.6333L70.6426 2.836L74.764 4.26241ZM67.8941 1.88476L63.7592 14.6821L59.6377 13.2557L63.7726 0.458342L67.8941 1.88476ZM56.9033 -1.91909L61.0248 -0.492676L56.8899 12.3047L52.7685 10.8782L56.9033 -1.91909Z" fill="#292A32"/>
<path d="M18.0448 16.9115L4.16627 21.6213C3.78283 21.7514 3.57228 22.184 3.69595 22.5881C3.81941 22.9916 4.23017 23.2133 4.61362 23.0832L18.4918 18.3735C18.8753 18.2434 19.0858 17.8108 18.9623 17.4073C18.8384 17.0033 18.4276 16.7816 18.0448 16.9115Z" fill="#292A32"/>
<path d="M4.45194 19.4266C4.06849 19.5567 3.85794 19.9893 3.98151 20.3931C4.10507 20.7969 4.51594 21.019 4.89939 20.8889L17.043 16.7678C17.4264 16.6377 17.6369 16.2048 17.5133 15.801C17.3897 15.3972 16.979 15.1755 16.5955 15.3056L16.4223 15.3644L14.4097 8.7871L14.5829 8.72832C14.7749 8.66315 14.8795 8.44708 14.8179 8.24552C14.7562 8.04396 14.5508 7.93309 14.3594 7.99805L2.21583 12.1191C2.02411 12.1841 1.91916 12.4003 1.98084 12.6019C2.04252 12.8034 2.2479 12.9143 2.4393 12.8493L2.61282 12.7905L4.62536 19.3674L4.45183 19.4263L4.45194 19.4266ZM13.0215 9.2582L15.034 15.8351L12.9523 16.5416L10.9398 9.96463L13.0215 9.2582ZM9.55159 10.4357L11.5641 17.0127L9.48247 17.7191L7.46993 11.1422L9.55159 10.4357ZM4.00038 12.3196L6.08205 11.6131L8.09458 18.1901L6.01292 18.8965L4.00038 12.3196Z" fill="#292A32"/>
<path d="M1.14752 11.7563L15.0257 7.04666C15.028 7.04589 15.0306 7.045 15.0325 7.04434C15.4163 6.91411 15.6265 6.48164 15.503 6.07783C15.4047 5.75684 15.1252 5.55139 14.8224 5.54536L6.93816 4.61914C6.73098 4.59501 6.52398 4.66526 6.36884 4.81234L0.435307 10.4557C0.180025 10.6987 0.12043 11.0959 0.292361 11.4093C0.463967 11.7227 0.820293 11.8674 1.14752 11.7563Z" fill="#292A32"/>
<path d="M41.3967 58.4395L17.5205 54.347C16.8609 54.2339 16.2394 54.7052 16.132 55.4004C16.0247 56.0946 16.4721 56.749 17.1318 56.8621L41.0074 60.9545C41.6671 61.0675 42.2886 60.5963 42.3958 59.9022C42.5027 59.2068 42.0553 58.5524 41.3967 58.4395Z" fill="#292A32"/>
<path d="M19.5174 51.3339C18.8578 51.2208 18.2363 51.692 18.129 52.3867C18.0216 53.0814 18.469 53.7364 19.1286 53.8495L40.0201 57.4304C40.6798 57.5435 41.3013 57.0717 41.4087 56.377C41.516 55.6823 41.0686 55.0278 40.4089 54.9148L40.1109 54.8637L41.8598 43.5483L42.1578 43.5994C42.4881 43.6561 42.7977 43.4203 42.8513 43.0735C42.9049 42.7267 42.6812 42.3995 42.3519 42.3431L21.4605 38.7622C21.1306 38.7056 20.8205 38.9413 20.7669 39.2881C20.7133 39.6349 20.937 39.9621 21.2663 40.0185L21.5648 40.0697L19.8161 51.3844L19.5175 51.3333L19.5174 51.3339ZM39.4715 43.139L37.7228 54.4537L34.1415 53.8399L35.8903 42.5252L39.4715 43.139ZM33.5021 42.1158L31.7533 53.4305L28.1721 52.8167L29.9208 41.502L33.5021 42.1158ZM23.9519 40.4789L27.5332 41.0927L25.7844 52.4074L22.2032 51.7936L23.9519 40.4789Z" fill="#292A32"/>
<path d="M20.1434 37.3759L44.019 41.4683C44.0229 41.469 44.0274 41.4698 44.0307 41.4703C44.691 41.5835 45.3119 41.1122 45.4192 40.4175C45.5046 39.8653 45.2392 39.3394 44.7964 39.0894L33.8179 31.4454C33.5293 31.2448 33.1731 31.1838 32.8384 31.2775L20.0252 34.8882C19.4737 35.0439 19.1006 35.583 19.1296 36.1827C19.158 36.7822 19.5804 37.2794 20.1434 37.3759Z" fill="#292A32"/>
</svg>

