<?xml version="1.0" encoding="UTF-8" standalone="no"?>
<!DOCTYPE svg PUBLIC "-//W3C//DTD SVG 1.1//EN" "http://www.w3.org/Graphics/SVG/1.1/DTD/svg11.dtd">
<svg width="100%" height="100%" viewBox="0 0 90 31" version="1.1" xmlns="http://www.w3.org/2000/svg" xmlns:xlink="http://www.w3.org/1999/xlink" xml:space="preserve" xmlns:serif="http://www.serif.com/" style="fill-rule:evenodd;clip-rule:evenodd;stroke-linejoin:round;stroke-miterlimit:2;">
    <g transform="matrix(1,0,0,1,-65260.3,-1952.2)">
        <g transform="matrix(1,0,0,7.01513,65029.8,1885.95)">
            <g transform="matrix(0.0116602,0,0,0.00221687,122.19,-2.26744)">
                <g transform="matrix(22.0056,0,0,16.5042,-193757,-68171.7)">
                    <path d="M9287.69,4451.96L9227.26,4451.96L9227.26,4540.49L9287.69,4540.49C9287.69,4540.49 9303.68,4518.14 9312.93,4505.2C9316.77,4499.83 9316.77,4492.62 9312.93,4487.25C9303.68,4474.31 9287.69,4451.96 9287.69,4451.96ZM9276.71,4465.14L9243.46,4465.14L9243.46,4527.31L9276.57,4527.31L9299.88,4496.23L9276.71,4465.14Z" style="fill:white;"/>
                </g>
                <g transform="matrix(22.0056,0,0,16.5042,-194958,-65667.1)">
                    <path d="M9384.33,4388.74L9384.33,4327.33L9400.03,4327.33L9400.03,4388.74L9384.33,4388.74ZM9392.27,4316.21C9389.33,4316.21 9386.94,4315.47 9385.21,4313.86C9383.48,4312.26 9382.66,4310.1 9382.66,4307.5C9382.66,4304.9 9383.46,4302.78 9385.19,4301.22C9386.93,4299.66 9389.33,4298.92 9392.27,4298.92C9395.13,4298.92 9397.49,4299.65 9399.27,4301.21C9401.04,4302.77 9401.89,4304.9 9401.89,4307.5C9401.89,4310.1 9401.1,4312.24 9399.37,4313.85C9397.64,4315.45 9395.22,4316.21 9392.27,4316.21Z" style="fill:white;fill-rule:nonzero;"/>
                </g>
                <g transform="matrix(22.0056,0,0,16.5042,-241590,-65979.9)">
                    <path d="M11566.8,4408.37C11561.8,4408.37 11557.3,4405.41 11555.3,4400.84C11548.1,4384.33 11531.7,4346.41 11531.7,4346.41L11548.3,4346.41L11567.2,4394.76L11586.6,4346.41L11602.1,4346.41C11602.1,4346.41 11585.5,4384.41 11578.2,4400.89C11576.2,4405.43 11571.7,4408.37 11566.8,4408.37L11566.8,4408.37Z" style="fill:white;fill-rule:nonzero;"/>
                </g>
                <g transform="matrix(22.0056,0,0,16.5042,-239969,-65979.9)">
                    <path d="M11566.8,4408.37C11561.8,4408.37 11557.3,4405.41 11555.3,4400.84C11548.1,4384.33 11531.7,4346.41 11531.7,4346.41L11548.3,4346.41L11567.2,4394.76L11586.6,4346.41L11602.1,4346.41C11602.1,4346.41 11585.5,4384.41 11578.2,4400.89C11576.2,4405.43 11571.7,4408.37 11566.8,4408.37L11566.8,4408.37Z" style="fill:white;fill-rule:nonzero;"/>
                </g>
                <g transform="matrix(22.0056,0,0,16.5042,-234958,-66928.5)">
                    <path d="M11404.9,4466.59L11377.6,4403.88L11394.2,4403.88L11412.9,4452.14L11432.6,4403.88L11448.1,4403.88L11409.3,4492.42L11393.4,4492.42L11404.9,4466.59Z" style="fill:white;fill-rule:nonzero;"/>
                </g>
            </g>
        </g>
    </g>
</svg>
