<?xml version="1.0" encoding="UTF-8"?>
<svg width="17px" height="17px" viewBox="0 0 17 17" version="1.1" xmlns="http://www.w3.org/2000/svg" xmlns:xlink="http://www.w3.org/1999/xlink">
    <!-- Generator: Sketch 57 (83077) - https://sketch.com -->
    <title>Combined Shape</title>
    <desc>Created with Sketch.</desc>
    <g id="Proof-of-Concept-Version" stroke="none" stroke-width="1" fill="none" fill-rule="evenodd">
        <g id="Betting---Logged-Out" transform="translate(-24.000000, -285.000000)" fill="#FFFFFF" fill-rule="nonzero">
            <g id="Group-6" transform="translate(0.000000, 266.000000)">
                <g id="Group-25" transform="translate(24.000000, 19.000000)">
                    <path d="M7,0.35 C10.6726936,0.35 13.65,3.32730641 13.65,7 C13.65,8.61773408 13.0723452,10.1005496 12.1120503,11.2534319 L16.6668045,15.8083692 L15.7475657,16.727608 L11.187444,12.1663045 C10.044224,13.0940608 8.58703527,13.65 7,13.65 C3.32730641,13.65 0.35,10.6726936 0.35,7 C0.35,3.32730641 3.32730641,0.35 7,0.35 Z M7,1.65 C4.04527659,1.65 1.65,4.04527659 1.65,7 C1.65,9.95472341 4.04527659,12.35 7,12.35 C9.95472341,12.35 12.35,9.95472341 12.35,7 C12.35,4.04527659 9.95472341,1.65 7,1.65 Z" id="Combined-Shape"></path>
                </g>
            </g>
        </g>
    </g>
</svg>