<svg width="49" height="152" viewBox="0 0 49 152" fill="none" xmlns="http://www.w3.org/2000/svg">
<path d="M17.0303 131.014L20.1264 118.29H28.0384L31.9606 131.496C32.2129 132.345 31.1976 133.015 30.4665 132.482C29.8852 132.058 29.0449 132.393 28.9446 133.088L28.2099 138.181C28.0151 139.531 26.0802 139.74 25.5797 138.466L24.5347 135.805C24.1769 134.894 22.8412 134.888 22.4745 135.795C22.0242 136.91 20.3018 136.57 20.3434 135.374L20.4283 132.938C20.4584 132.072 19.4355 131.558 18.7154 132.076C17.9143 132.653 16.802 131.952 17.0303 131.014Z" fill="#EF1414"/>
<path d="M3.44969 139.762C-3.42555 104.592 0.596189 83.9016 10.0393 82.244L13 108.576C7.99241 109.535 5.65891 127.927 4.76507 139.679C4.70415 140.48 3.60354 140.549 3.44969 139.762Z" fill="#4B7DFD"/>
<mask id="mask0_170:273" style="mask-type:alpha" maskUnits="userSpaceOnUse" x="6" y="76" width="20" height="38">
<path d="M6.65259 78.1328L21.2214 76.5034L25.1871 112.05L10.6182 113.68L6.65259 78.1328Z" fill="#C4C4C4"/>
</mask>
<g mask="url(#mask0_170:273)">
<path d="M3.44969 139.762C-3.42555 104.592 0.596189 83.9016 10.0393 82.244L13 108.576C7.99241 109.535 5.65891 127.927 4.76507 139.679C4.70415 140.48 3.60354 140.549 3.44969 139.762Z" fill="#3857A8"/>
</g>
<path d="M21.9231 3.32129C23.2947 1.74932 25.754 1.74932 27.1256 3.32129L36.6207 14.2035C42.9372 21.4428 45.8925 30.9806 44.7643 40.4863L35.8871 115.279C35.6833 116.996 34.2154 118.29 32.4714 118.29H24.3524H16.2445C14.4958 118.29 13.0255 116.989 12.8274 115.267L4.22137 40.4192C3.13286 30.9524 6.09115 21.466 12.3793 14.2593L21.9231 3.32129Z" fill="#4B7DFD" fill-opacity="0.62"/>
<mask id="mask1_170:273" style="mask-type:alpha" maskUnits="userSpaceOnUse" x="1" y="0" width="23" height="119">
<path d="M1 0.139771H24V118.29H1V0.139771Z" fill="#C4C4C4"/>
</mask>
<g mask="url(#mask1_170:273)">
<path d="M21.9231 3.32129C23.2947 1.74932 25.754 1.74932 27.1256 3.32129L36.6207 14.2035C42.9372 21.4428 45.8925 30.9806 44.7643 40.4863L35.8871 115.279C35.6833 116.996 34.2154 118.29 32.4714 118.29H24.3524H16.2445C14.4958 118.29 13.0255 116.989 12.8274 115.267L4.22137 40.4192C3.13286 30.9524 6.09115 21.466 12.3793 14.2593L21.9231 3.32129Z" fill="#4B7DFD"/>
</g>
<path d="M45.5503 139.762C52.4256 104.592 48.4038 83.9016 38.9607 82.244L36 108.576C41.0076 109.535 43.3411 127.927 44.2349 139.679C44.2958 140.48 45.3965 140.549 45.5503 139.762Z" fill="#3857A8"/>
<g filter="url(#filter0_d_170:273)">
<path d="M23 88.2516H26V141.307C26 142.419 25.3284 143.321 24.5 143.321C23.6716 143.321 23 142.419 23 141.307V88.2516Z" fill="#4B7DFD"/>
</g>
<path d="M24 88.2516H26V141.307C26 142.419 25.1046 143.321 24 143.321V88.2516Z" fill="#3857A8"/>
<path d="M32 32.6811C32 36.8285 28.6421 40.1906 24.5 40.1906C20.3579 40.1906 17 36.8285 17 32.6811C17 28.5337 20.3579 25.1715 24.5 25.1715C28.6421 25.1715 32 28.5337 32 32.6811Z" fill="black"/>
<path fill-rule="evenodd" clip-rule="evenodd" d="M24.5 38.7602C27.8532 38.7602 30.5714 36.0385 30.5714 32.6811C30.5714 29.3237 27.8532 26.6019 24.5 26.6019C21.1468 26.6019 18.4286 29.3237 18.4286 32.6811C18.4286 36.0385 21.1468 38.7602 24.5 38.7602ZM24.5 40.1906C28.6421 40.1906 32 36.8285 32 32.6811C32 28.5337 28.6421 25.1715 24.5 25.1715C20.3579 25.1715 17 28.5337 17 32.6811C17 36.8285 20.3579 40.1906 24.5 40.1906Z" fill="white"/>
<path d="M28 75.2351V73.6236H25.1084V70.3524H28V68.7446H21V70.3524H23.8882V73.6236H21V75.2351H28Z" fill="white"/>
<path d="M28 66.1023L26.4038 65.5366V62.7864L28 62.2207V60.4939L21 63.1213V65.198L28 67.8291V66.1023ZM25.2485 65.1273L22.5996 64.1894V64.1299L25.2485 63.192V65.1273Z" fill="white"/>
<path d="M28 59.5765V54.6975H26.7798V57.9651H21V59.5765H28Z" fill="white"/>
<path d="M28 50.9285C28 48.6062 26.6807 47.1995 24.4932 47.1995C22.3125 47.1995 21 48.6062 21 50.9062V53.6304H28V50.9285ZM26.7319 52.0189H22.2681V50.9918C22.2681 49.5627 22.938 48.8072 24.4932 48.8072C26.0552 48.8072 26.7319 49.5627 26.7319 50.9955V52.0189Z" fill="white"/>
<path d="M24 45.1969H29V78.2389H24V45.1969Z" fill="#3857A8" fill-opacity="0.35"/>
<defs>
<filter id="filter0_d_170:273" x="15" y="80.2516" width="19" height="71.0699" filterUnits="userSpaceOnUse" color-interpolation-filters="sRGB">
<feFlood flood-opacity="0" result="BackgroundImageFix"/>
<feColorMatrix in="SourceAlpha" type="matrix" values="0 0 0 0 0 0 0 0 0 0 0 0 0 0 0 0 0 0 127 0" result="hardAlpha"/>
<feOffset/>
<feGaussianBlur stdDeviation="4"/>
<feComposite in2="hardAlpha" operator="out"/>
<feColorMatrix type="matrix" values="0 0 0 0 0 0 0 0 0 0 0 0 0 0 0 0 0 0 0.15 0"/>
<feBlend mode="normal" in2="BackgroundImageFix" result="effect1_dropShadow_170:273"/>
<feBlend mode="normal" in="SourceGraphic" in2="effect1_dropShadow_170:273" result="shape"/>
</filter>
</defs>
</svg>
