<svg width="37" height="38" viewBox="0 0 37 38" fill="none" xmlns="http://www.w3.org/2000/svg">
<path d="M9.11202 2.76567C8.98191 1.0191 10.9982 -0.0412087 12.3605 1.05737L19.7001 6.97618C20.267 7.43336 21.0377 7.54567 21.7117 7.26933L30.4355 3.69302C32.0544 3.02935 33.6829 4.619 33.0606 6.25538L29.7048 15.0786C29.4458 15.7595 29.5769 16.5272 30.047 17.0829L36.1405 24.286C37.2708 25.622 36.2614 27.6648 34.514 27.5778L25.1022 27.109C24.3746 27.0728 23.6846 27.4356 23.3014 28.056L18.3449 36.0807C17.4247 37.5706 15.172 37.2433 14.7149 35.5532L12.2506 26.4416C12.0605 25.7387 11.5037 25.1948 10.7968 25.0219L1.63708 22.7803C-0.0617095 22.3646 -0.444472 20.1198 1.02011 19.1619L8.91227 14.0003C9.52208 13.6015 9.86715 12.9024 9.813 12.1756L9.11202 2.76567Z" fill="#4B7DFD"/>
</svg>
